<?xml version="1.0" encoding="UTF-8"?>
<svg id="Ebene_1" data-name="Ebene 1" xmlns="http://www.w3.org/2000/svg" viewBox="0 0 552.7 84.5">
  <defs>
    <style>
      .cls-1 {
        fill: inherit;
        stroke: inherit;
        stroke-width: 0px;
      }
    </style>
  </defs>
  <path class="cls-1" d="m29.8,0c7,0,13.7,1.8,18,3.9v13.3h-1.9c-3.6-2.4-9-4.7-14.4-4.7-11,0-17.7,7.5-17.7,20.5s6.2,21,16.5,21c4.3,0,8.9-1.5,12.9-4.3h1.9l4.4,11.6c-6.6,3.8-14.9,4.9-20.3,4.9C9.8,66.2,0,52.2,0,33.2S10.4,0,29.8,0Z"/>
  <path class="cls-1" d="m90.6,40.5c1.3-1.7,2-4.6,2-7.7,0-11.6-2.5-21.4-11.4-21.4s-11.4,9.8-11.4,21.4,2,22.5,11.4,22.5h1l-5.3-11.5v-1.8l8.7-4,15.8,33.9v1.8l-8.8,3.6-5.5-11.8c-1.9.4-3.8.7-5.9.7-17.6,0-25.2-14.4-25.2-33.4S63.7,0,81.2,0s25.2,13.8,25.2,32.8c0,10.4-2.7,20.1-7.7,25.8l-8.1-18.1Z"/>
  <path class="cls-1" d="m118.3,30.1h37.7v11.6h-37.7v-11.6Z"/>
  <path class="cls-1" d="m169.4,1.4h14.6l9.3,29.6,9.3-29.6h14.4v63h-11.9V31.1l1-11.9-.3-.1-7.6,22.9h-9.8l-7.8-22.9-.3.1,1,10.4v34.8h-11.9V1.4Z"/>
  <path class="cls-1" d="m260.5,59.8c-3.4,3.2-10,6.1-16.6,6.1-11.3,0-17.6-5.8-17.6-14.3,0-10.5,9.5-14.7,21.4-14.7h9.5v-1.4c0-4.7-3-8.7-11.1-8.7-4.6,0-10,1.4-13.5,3h-1.8v-9.9c3.6-1.5,10.1-3.3,17.4-3.3,16.4,0,21.6,8.9,21.6,22.4v25.5h-7l-2.3-4.7Zm-3.3-7.8v-7.1h-10.3c-5.3,0-8.4,1.8-8.4,5.4s2.9,5.5,7.6,5.5c3.6,0,8-1.7,11.1-3.8Z"/>
  <path class="cls-1" d="m313.8,64.4v-27.8c0-5.6-1.7-8.4-6.7-8.4-3.8,0-7.7,1.6-10.5,3v33.2h-13V18.4h6.2l2.2,4.1c3.5-2.6,10.5-5.9,17.2-5.9,13.5,0,17.6,9.1,17.6,20.5v27.3h-13Z"/>
  <path class="cls-1" d="m372.5,59.8c-3.4,3.2-10,6.1-16.6,6.1-11.3,0-17.6-5.8-17.6-14.3,0-10.5,9.5-14.7,21.4-14.7h9.5v-1.4c0-4.7-3-8.7-11.1-8.7-4.6,0-10,1.4-13.5,3h-1.8v-9.9c3.6-1.5,10.1-3.3,17.4-3.3,16.4,0,21.6,8.9,21.6,22.4v25.5h-7l-2.3-4.7Zm-3.3-7.8v-7.1h-10.3c-5.3,0-8.4,1.8-8.4,5.4s2.9,5.5,7.6,5.5c3.6,0,8-1.7,11.1-3.8Z"/>
  <path class="cls-1" d="m425.8,63.7v-5.2c-1.7,2-5.4,4.7-11.3,4.7-10.8,0-20.8-7.5-20.8-22.5s9.6-24.1,21.7-24.1c6.3,0,11.4,2.6,15.5,5.6l2.3-3.8h5.6v44.3c0,13.2-8.1,21.8-22.5,21.8-6.9,0-15.3-2-19.5-5.4l3.9-10h1.8c2.5,2,6.9,4.1,12.4,4.1,6.5,0,10.9-3.2,10.9-9.5Zm-18.8-23.1c0,7.9,4.1,11.9,9.9,11.9,3.4,0,6.6-1.8,8.9-4.1v-17.3c-2.7-1.9-5.5-3-8.7-3-6.2,0-10.1,4.7-10.1,12.5Z"/>
  <path class="cls-1" d="m462.8,44.9c.2,6.2,4.5,10.5,11.6,10.5,4.6,0,10-1.8,13.9-4.5h1.6l4.6,9.3c-4.9,3.2-11.7,5.7-19.5,5.7-15.1,0-25.2-9.2-25.2-24.4,0-16,11-24.9,24-24.9,13.9,0,22,10.1,22,25v3.3h-33Zm-.1-8h21.1c0-5.1-3.9-10.1-10.5-10.1s-10.1,4.9-10.6,10.1Z"/>
  <path class="cls-1" d="m552.7,30.7h-1.8c-3.2-1-6.5-1.7-9.1-1.7-4.5,0-8.3,1.7-12.7,6v29.4h-13V29.2h-10.3v-10.8h15.9l2.7,7c4.4-5,10.2-8.8,17.8-8.8,3,0,7.1.6,10.5,1.8v12.3Z"/>
</svg>