<?xml version="1.0" encoding="UTF-8"?>
<svg id="Ebene_1" data-name="Ebene 1" xmlns="http://www.w3.org/2000/svg" viewBox="0 0 106.4 77.3">
  <defs>
    <style>
      .cls-1 {
        fill: #1d1d1b;
        stroke-width: 0px;
      }
    </style>
  </defs>
  <path class="cls-1" d="m29.8,0c7,0,13.7,1.8,18,3.9v13.3h-1.9c-3.6-2.4-9-4.7-14.4-4.7-11,0-17.7,7.5-17.7,20.5s6.2,21,16.5,21c4.3,0,8.9-1.5,12.9-4.3h1.9l4.4,11.6c-6.6,3.8-14.9,4.9-20.3,4.9C9.8,66.2,0,52.2,0,33.2S10.4,0,29.8,0Z"/>
  <path class="cls-1" d="m90.6,40.5c1.3-1.7,2-4.6,2-7.7,0-11.6-2.5-21.4-11.4-21.4s-11.4,9.8-11.4,21.4,2,22.5,11.4,22.5h1l-5.3-11.5v-1.8l8.7-4,15.8,33.9v1.8l-8.8,3.6-5.5-11.8c-1.9.4-3.8.7-5.9.7-17.6,0-25.2-14.4-25.2-33.4S63.7,0,81.2,0s25.2,13.8,25.2,32.8c0,10.4-2.7,20.1-7.7,25.8l-8.1-18.1Z"/>
</svg>